<?xml version="1.0" encoding="utf-8"?>
<!-- Generator: Adobe Illustrator 28.0.0, SVG Export Plug-In . SVG Version: 6.00 Build 0)  -->
<svg version="1.1" id="Layer_1" xmlns="http://www.w3.org/2000/svg" xmlns:xlink="http://www.w3.org/1999/xlink" x="0px" y="0px"
	 viewBox="0 0 252.44 100" style="enable-background:new 0 0 252.44 100;" xml:space="preserve">
<style type="text/css">
	.st0{fill-rule:evenodd;clip-rule:evenodd;fill:#B12A43;}
	.st1{fill-rule:evenodd;clip-rule:evenodd;fill:#097B9C;}
	.st2{fill:#B48B40;}
	.st3{fill:#932035;}
</style>
<g>
	<g>
		<path class="st0" d="M102.79,39.37c-0.5,0.26-0.98,0.5-1.19,0.62c-0.19,0.1-0.3,0.28-0.23,0.46c0.05,0.15,0.23,0.24,0.46,0.19
			c0.34-0.06,1.35-0.32,3.09-0.97c0.97-0.35,3.71-1.43,5.71-2.21c4.9-1.94,9.29-3.98,14.07-5.24c2.1-0.55,5.3-1.15,8.11-1.36
			c2.58-0.19,5.43,0.19,6.06,0.35c0.32,0.09,0.47-0.18,0.35-0.39c-0.07-0.14-0.34-0.55-0.74-0.91c-2.68-2.53-4.36-3.61-7.98-5.64
			c-2.06-1.16-6.05-2.69-6.94-2.82c-0.5-0.09-0.83,0.05-1.11,0.55c-0.73,1.25-2.79,4.82-4.9,7.1c-4.88,5.27-9.83,7.68-12.42,9.06
			C104.92,38.26,102.94,39.29,102.79,39.37"/>
		<path class="st0" d="M112.03,27.13L112.03,27.13c-1.89-0.2-4.06-0.86-5.87-1.51c-6.28-2.2-12.83-7.54-12.94-7.62
			c-0.17-0.12-0.56-0.48-0.72-0.43c-0.16,0.04-0.29,0.19-0.18,0.37c0.1,0.19,0.27,0.42,0.45,0.71c1.93,2.86,4.51,6.36,3.47,11.47
			c-1.26,6.22-7.51,11.56-8.73,12.39c-0.1,0.07-0.11,0.25-0.04,0.35c0.11,0.16,0.32,0.1,0.72-0.01c3.57-1.06,11.26-3.6,17.03-7.71
			c4.13-2.96,5.9-5.61,7.11-7.43C112.49,27.53,112.39,27.19,112.03,27.13"/>
		<path class="st0" d="M127.92,4.36c0.5-0.25,0.98-0.5,1.19-0.62c0.19-0.1,0.29-0.27,0.22-0.46c-0.05-0.15-0.24-0.23-0.46-0.18
			c-0.33,0.07-1.35,0.33-3.08,0.97c-0.97,0.36-3.71,1.42-5.7,2.22c-4.9,1.93-9.3,3.97-14.07,5.23c-2.11,0.57-5.31,1.16-8.11,1.37
			c-2.59,0.18-5.43-0.19-6.07-0.36c-0.31-0.09-0.46,0.19-0.34,0.39c0.08,0.15,0.34,0.55,0.74,0.92c2.67,2.52,4.37,3.6,7.99,5.65
			c2.06,1.15,6.05,2.68,6.94,2.82c0.52,0.08,0.83-0.06,1.11-0.56c0.73-1.25,2.79-4.82,4.9-7.1c4.88-5.27,9.83-7.68,12.42-9.07
			C125.79,5.48,127.77,4.44,127.92,4.36"/>
		<path class="st0" d="M118.69,16.61L118.69,16.61c1.89,0.19,4.04,0.86,5.87,1.5c6.28,2.19,12.83,7.54,12.94,7.62
			c0.17,0.12,0.55,0.48,0.71,0.44c0.16-0.04,0.29-0.2,0.19-0.38c-0.1-0.18-0.27-0.43-0.46-0.71c-1.93-2.86-4.5-6.35-3.47-11.48
			c1.26-6.21,7.51-11.55,8.72-12.38c0.09-0.07,0.11-0.24,0.04-0.35c-0.1-0.16-0.32-0.1-0.71,0.01c-3.57,1.06-11.25,3.59-17.02,7.71
			c-4.14,2.95-5.9,5.6-7.11,7.43C118.22,16.2,118.33,16.55,118.69,16.61"/>
		<polygon class="st1" points="130.26,55.11 137.19,55.11 142.04,74.11 146.73,55.11 153.36,55.11 142.47,90.88 136.45,90.87 
			138.93,81.79 		"/>
		<path class="st1" d="M22.88,51.43c-0.68-0.29-1.45-0.51-2.29-0.65c-0.86-0.17-1.7-0.25-2.53-0.25c-1.95,0-3.61,0.31-4.98,0.92
			c-1.38,0.62-2.5,1.49-3.36,2.61c-0.87,1.12-1.5,2.46-1.9,4.02c-0.4,1.56-0.6,3.25-0.6,5.1c0,2.03,0.14,3.89,0.44,5.59
			c0.29,1.69,0.82,3.16,1.6,4.37c0.78,1.22,1.87,2.16,3.26,2.82c1.39,0.68,3.18,1,5.39,1c1.85,0,3.63-0.33,5.32-1.02l0.11,5.69
			c-1.05,0.33-2.14,0.55-3.26,0.67c-1.12,0.1-2.21,0.16-3.26,0.16c-3.18,0-5.85-0.46-7.98-1.35c-2.13-0.91-3.85-2.19-5.15-3.86
			c-1.3-1.67-2.23-3.68-2.78-6.05c-0.54-2.37-0.82-5.04-0.82-8c0-2.49,0.37-4.85,1.07-7.06c0.7-2.2,1.77-4.14,3.19-5.78
			c1.44-1.65,3.22-2.94,5.35-3.88c2.13-0.93,4.64-1.42,7.54-1.42c1.84,0,3.29,0.11,4.34,0.31c1.05,0.19,1.93,0.39,2.66,0.61
			L22.88,51.43z"/>
		<path class="st1" d="M39.04,63.54c-0.11-0.79-0.32-1.53-0.62-2.21c-0.31-0.69-0.74-1.24-1.3-1.67c-0.55-0.43-1.29-0.65-2.2-0.65
			c-0.87,0-1.58,0.22-2.12,0.69c-0.54,0.45-0.98,1.01-1.3,1.69c-0.33,0.68-0.55,1.42-0.68,2.21c-0.13,0.79-0.19,1.52-0.19,2.16h8.58
			C39.21,65.06,39.15,64.32,39.04,63.54 M30.64,70.06c0,2.28,0.53,4.11,1.6,5.5c1.07,1.39,2.81,2.09,5.24,2.09
			c0.98,0,1.99-0.11,3.04-0.35c1.06-0.24,2.02-0.55,2.89-0.95l1.09,4.62c-1.23,0.5-2.63,0.86-4.21,1.06
			c-1.58,0.19-3.02,0.3-4.32,0.3c-2.14,0-3.95-0.37-5.46-1.14c-1.5-0.76-2.72-1.79-3.66-3.09c-0.94-1.31-1.64-2.82-2.09-4.54
			c-0.46-1.72-0.68-3.53-0.68-5.44c0-1.64,0.21-3.25,0.62-4.86c0.43-1.61,1.06-3.06,1.93-4.32c0.86-1.27,1.99-2.29,3.36-3.07
			c1.38-0.78,3.02-1.17,4.94-1.17c2.03,0,3.72,0.36,5.07,1.07c1.36,0.7,2.45,1.64,3.26,2.81c0.81,1.18,1.39,2.54,1.74,4.11
			c0.35,1.55,0.51,3.22,0.51,4.99v2.39H30.64z"/>
		<path class="st1" d="M63.05,81.83V63.64c0-1.2-0.3-2.22-0.88-3.09c-0.58-0.87-1.56-1.31-2.93-1.31c-0.79,0-1.48,0.19-2.03,0.54
			c-0.57,0.36-1.02,0.82-1.37,1.39c-0.34,0.56-0.6,1.19-0.76,1.9c-0.16,0.7-0.24,1.38-0.24,2.03v16.74h-6.45V55.13h5.69l0.49,3.57
			c0.58-1.23,1.5-2.21,2.75-2.95c1.25-0.74,2.74-1.12,4.47-1.12c1.34,0,2.5,0.22,3.45,0.67c0.96,0.46,1.76,1.08,2.39,1.83
			c0.62,0.76,1.1,1.65,1.41,2.68c0.32,1.03,0.47,2.12,0.47,3.29v18.73H63.05z"/>
		<path class="st1" d="M84.98,82.21c-0.85,0.07-1.86,0.1-3.01,0.1c-4.42,0-6.63-2.43-6.63-7.31V59.88h-3.79v-4.73h3.79V49.1
			l6.45-1.86v7.84h5.15v4.79H81.8v13.6c0,1.52,0.21,2.57,0.62,3.2c0.42,0.6,1.09,0.92,2.04,0.92c0.5,0,0.91-0.01,1.25-0.02
			c0.33-0.03,0.72-0.12,1.19-0.3l0.43,4.4C86.61,81.96,85.82,82.13,84.98,82.21"/>
		<path class="st1" d="M104.85,81.83l-0.48-3.54c-0.55,1.24-1.43,2.21-2.66,2.95c-1.23,0.72-2.7,1.08-4.39,1.08
			c-1.34,0-2.48-0.22-3.43-0.65c-0.94-0.43-1.71-1.04-2.33-1.79c-0.62-0.76-1.07-1.66-1.37-2.69c-0.27-1.05-0.42-2.13-0.42-3.29
			l-0.01-18.79h6.45v18.13c0,1.19,0.27,2.21,0.81,3.04c0.55,0.83,1.51,1.25,2.89,1.25c0.75,0,1.41-0.17,1.92-0.51
			c0.54-0.34,0.97-0.79,1.31-1.33c0.35-0.54,0.59-1.15,0.74-1.82c0.14-0.67,0.22-1.35,0.22-2.04l0-16.72h6.45v26.72H104.85z"/>
		<path class="st1" d="M127.77,60.47c-0.54-0.13-1.08-0.17-1.43-0.17c-0.98,0-1.73,0.29-2.32,0.68c-0.6,0.4-1.08,0.92-1.44,1.57
			c-0.36,0.65-0.6,1.38-0.73,2.2c-0.13,0.82-0.19,1.64-0.19,2.47l0,14.6h-6.45V55.11h5.85l0.48,3.55c0.84-1.43,1.77-2.44,2.8-3.07
			c1.03-0.64,2.1-0.8,3.6-0.8c0.57,0,1.16,0.15,1.55,0.27L127.77,60.47z"/>
		<path class="st1" d="M127.35,94.28l1.15-4.67h0.64c0.56,0,0.93,0.09,1.16,0.24c0.28,0.21,0.46,0.67,0.46,1.22
			c0,0.95-0.35,1.98-0.87,2.56c-0.45,0.49-0.92,0.65-1.84,0.65H127.35z M127.49,88.48l-1.72,6.94h1.72c1.7,0,2.44-0.21,3.21-0.88
			c0.88-0.78,1.39-2.05,1.39-3.48c0-0.96-0.27-1.66-0.83-2.08c-0.48-0.36-1.11-0.5-2.33-0.5H127.49z M123.31,92.87h-1.66l0.41-0.71
			c0.57-1.07,0.58-1.09,1.18-2.43l0,0.48c0,0.41,0.02,1.47,0.03,1.92L123.31,92.87z M122.88,88.48l-4,6.94h1.42l0.8-1.44h2.23
			l0.07,1.44h1.33l-0.55-6.94H122.88z M116.46,91.27l0.4-1.65h2.87l0.28-1.14h-4.16l-1.73,6.94h4.34l0.28-1.13h-3.04l0.47-1.89h2.74
			l0.27-1.13H116.46z M109.39,91.25l0.7-2.77h-1.31l-1.72,6.94h1.29l0.77-3.07h2.66l-0.76,3.07h1.29l1.74-6.94h-1.3l-0.68,2.77
			H109.39z M104.61,92.87h-1.66l0.4-0.71c0.57-1.07,0.58-1.09,1.19-2.43v0.48c0,0.41,0.02,1.47,0.03,1.92L104.61,92.87z
			 M104.18,88.48l-4,6.94h1.42l0.8-1.44h2.24l0.07,1.44h1.33l-0.55-6.94H104.18z M95.12,91.95l-0.24,0.99h1.34l-0.29,1.18
			c-0.32,0.16-0.82,0.29-1.24,0.29c-1.03,0-1.58-0.57-1.58-1.61c0-0.77,0.26-1.65,0.68-2.29c0.45-0.68,0.97-1.02,1.64-1.02
			c0.77,0,1.19,0.42,1.21,1.25h1.19v-0.12c0-1.46-0.83-2.28-2.31-2.28c-0.94,0-1.77,0.35-2.42,1.04c-0.83,0.85-1.32,2.13-1.32,3.43
			c0,0.94,0.25,1.62,0.76,2.07c0.49,0.44,1.16,0.67,2,0.67c0.83,0,1.61-0.22,2.33-0.64l0.74-2.97H95.12z M86,88.48l-1.73,6.94h1.22
			l1.25-4.99l1.76,4.99h1.28l1.73-6.94H90.3l-1.25,5l-1.69-5H86z M82.47,95.42l1.74-6.94h-1.3l-1.73,6.94H82.47z M76.55,88.48
			l-1.73,6.94h1.29l1.74-6.94H76.55z M80.18,88.48l-3.13,3.26l1.58,3.68h1.59l-1.73-3.63l3.24-3.31H80.18z M69.23,88.48l-1.72,6.94
			h1.22l1.25-4.99l1.76,4.99h1.28l1.73-6.94h-1.21l-1.25,5l-1.69-5H69.23z M65.7,95.42l1.74-6.94h-1.3l-1.73,6.94H65.7z
			 M59.67,91.25l0.7-2.77h-1.3l-1.72,6.94h1.29l0.77-3.07h2.66l-0.76,3.07h1.29l1.74-6.94h-1.3l-0.68,2.77H59.67z M53.32,88.48
			l-0.35,1.14h1.77l-1.44,5.8h1.29l1.45-5.8h1.61L58,88.48H53.32z"/>
		<path class="st1" d="M162.12,58.71c0,2.01-1.64,3.66-3.65,3.66c-2.01,0-3.66-1.65-3.66-3.65c0-2.05,1.64-3.67,3.71-3.67
			C160.48,55.05,162.12,56.71,162.12,58.71 M155.34,58.72c0,1.75,1.4,3.18,3.13,3.18c1.72,0,3.12-1.42,3.12-3.19
			c0-1.74-1.4-3.19-3.08-3.19C156.74,55.53,155.34,56.94,155.34,58.72z M158.09,56.61c0.72,0,1.01,0.04,1.31,0.17
			c0.42,0.19,0.68,0.6,0.68,1.1c0,0.56-0.27,0.94-0.82,1.16l1.09,1.81h-0.87l-1.01-1.68h-0.64v1.68h-0.74v-4.24H158.09z
			 M158.12,58.55c0.48,0,0.61-0.01,0.8-0.07c0.26-0.1,0.4-0.3,0.4-0.61c0-0.26-0.11-0.44-0.32-0.54c-0.19-0.1-0.31-0.1-0.91-0.1
			h-0.24v1.33H158.12z"/>
	</g>
	<g>
		<rect x="182.2" y="55.29" class="st2" width="1" height="40.4"/>
	</g>
	<g>
		<path class="st3" d="M237.61,61.9c-4.61,0-8.72,2.17-11.37,5.54c-2.27-2.15-5.3-3.37-8.45-3.37h-5.02l0.23-2.13h13.4v-1.39h-14.65
			l-0.53,4.9h6.56c2.85,0,5.6,1.13,7.63,3.13c-0.26,0.4-0.49,0.82-0.71,1.24c-1.79-1.89-4.29-2.99-6.92-2.99h-8.3l1.16-7.67h15.75
			v-1.39h-16.94l-1.58,10.44h9.91c2.44,0,4.77,1.11,6.3,3c-0.21,0.54-0.38,1.1-0.52,1.67c-1.18-1.96-3.33-3.28-5.78-3.28h-11.6
			l2.14-13.21h18.07v-1.39h-19.25l-2.59,15.98h13.23c2.96,0,5.36,2.41,5.36,5.36c0,4.15-3.38,7.53-7.53,7.53
			c-4.15,0-7.53-3.38-7.53-7.53h-1.39c0,4.91,4,8.91,8.91,8.91c4.91,0,8.91-4,8.91-8.91c0,0,0,0,0,0h0
			c0-7.21,5.86-13.07,13.07-13.07c7.21,0,13.07,5.86,13.07,13.07c0,7.21-5.86,13.07-13.07,13.07c-3.95,0-7.62-1.75-10.12-4.81
			c0.28-0.4,0.54-0.81,0.78-1.24c2.2,2.94,5.62,4.67,9.35,4.67c6.44,0,11.68-5.24,11.68-11.68c0-6.44-5.24-11.68-11.68-11.68
			c-6.44,0-11.68,5.24-11.68,11.68c0,5.68-4.62,10.3-10.3,10.3c-5.68,0-10.3-4.62-10.3-10.3h-1.39c0,6.44,5.24,11.68,11.68,11.68
			c6.44,0,11.68-5.24,11.68-11.68c0-5.68,4.62-10.3,10.3-10.3c5.68,0,10.3,4.62,10.3,10.3c0,5.68-4.62,10.3-10.3,10.3
			c-3.53,0-6.74-1.76-8.65-4.71c0.24-0.57,0.44-1.15,0.61-1.75c1.44,3,4.5,5.08,8.05,5.08c4.91,0,8.91-4,8.91-8.91
			c0-4.91-4-8.91-8.91-8.91c-4.91,0-8.91,4-8.91,8.91c0,0,0,0,0,0h0c0,7.21-5.86,13.07-13.07,13.07c-7.21,0-13.07-5.86-13.07-13.07
			h-1.39c0,7.97,6.48,14.45,14.46,14.45c4.4,0,8.34-1.97,10.99-5.08c2.76,3.23,6.73,5.08,10.99,5.08c7.97,0,14.45-6.48,14.45-14.45
			C252.07,68.38,245.58,61.9,237.61,61.9z M237.61,68.82c4.15,0,7.53,3.38,7.53,7.53c0,4.15-3.38,7.53-7.53,7.53
			c-4.15,0-7.53-3.38-7.53-7.53C230.09,72.2,233.46,68.82,237.61,68.82z"/>
		<g>
			<path class="st3" d="M231.87,55.08l0.05,0.02l0.85,1.11l0.85-1.11l0.04-0.02h0.54l0.02,0.02L233,56.66v1.7l-0.02,0.02h-0.42
				l-0.02-0.02v-1.7l-1.23-1.56l0.02-0.02H231.87z"/>
			<path class="st3" d="M237.13,55.08l0.02,0.02v0.43l-0.02,0.02h-1.53v0.78h1.15l0.02,0.02v0.42l-0.02,0.02h-1.15v1.11h1.67
				l0.02,0.02v0.43l-0.02,0.02h-2.12l-0.02-0.02V55.1l0.02-0.02H237.13z"/>
			<path class="st3" d="M239.77,55.08l0.02,0.02l1.32,3.25l-0.02,0.02h-0.47l-0.02-0.02l-0.31-0.75h-1.46l-0.31,0.75l-0.02,0.02
				h-0.47L238,58.36l1.32-3.25l0.02-0.02H239.77z M239.01,57.13h1.08l-0.54-1.39L239.01,57.13z"/>
			<path class="st3" d="M242.95,55.08c0.66,0,1.08,0.4,1.08,0.94c0,0.38-0.21,0.71-0.57,0.85l1.08,1.49l-0.02,0.02h-0.57l-0.02-0.02
				l-1.04-1.39h-0.42v1.39l-0.02,0.02h-0.42L242,58.36V55.1l0.02-0.02H242.95z M242.48,56.49h0.47c0.35,0,0.54-0.19,0.54-0.47
				s-0.19-0.47-0.54-0.47h-0.47V56.49z"/>
			<path class="st3" d="M246.6,55.76c-0.14-0.16-0.24-0.26-0.42-0.26s-0.33,0.14-0.33,0.35c0,0.47,1.44,0.45,1.44,1.53
				c0,0.59-0.47,1.06-1.06,1.06c-0.47,0-0.82-0.26-0.99-0.68l0.35-0.28h0.05c0.14,0.31,0.31,0.47,0.59,0.47
				c0.31,0,0.52-0.24,0.52-0.57c0-0.66-1.44-0.61-1.44-1.53c0-0.47,0.38-0.85,0.87-0.85c0.38,0,0.66,0.21,0.83,0.5l-0.35,0.26H246.6
				z"/>
		</g>
		<g>
			<path class="st3" d="M214.23,96.54c-0.14-0.16-0.24-0.26-0.42-0.26c-0.19,0-0.33,0.14-0.33,0.35c0,0.47,1.44,0.45,1.44,1.53
				c0,0.59-0.47,1.06-1.06,1.06c-0.47,0-0.83-0.26-0.99-0.68l0.35-0.28h0.05c0.14,0.31,0.31,0.47,0.59,0.47
				c0.31,0,0.52-0.24,0.52-0.57c0-0.66-1.44-0.61-1.44-1.53c0-0.47,0.38-0.85,0.87-0.85c0.38,0,0.66,0.21,0.82,0.5l-0.35,0.26
				H214.23z"/>
			<path class="st3" d="M216.4,95.85l0.02,0.02v3.25l-0.02,0.02h-0.42l-0.02-0.02v-3.25l0.02-0.02H216.4z"/>
			<path class="st3" d="M218.12,95.85l0.05,0.02l1.93,2.52v-2.52l0.02-0.02h0.42l0.02,0.02v3.25l-0.02,0.02h-0.45l-0.05-0.02
				l-1.93-2.52v2.52l-0.02,0.02h-0.42l-0.02-0.02v-3.25l0.02-0.02H218.12z"/>
			<path class="st3" d="M224.5,96.7c-0.31-0.26-0.71-0.42-1.11-0.42c-0.66,0-1.2,0.54-1.2,1.23c0,0.68,0.54,1.23,1.2,1.23
				c0.4,0,0.8-0.16,1.11-0.42l0.02,0.02v0.54c-0.31,0.22-0.68,0.35-1.13,0.35c-0.97,0-1.74-0.78-1.74-1.72
				c0-0.94,0.78-1.72,1.74-1.72c0.45,0,0.82,0.13,1.13,0.35v0.54L224.5,96.7z"/>
			<path class="st3" d="M227.66,95.85l0.02,0.02v0.43l-0.02,0.02h-1.53v0.78h1.16l0.02,0.02v0.42l-0.02,0.02h-1.16v1.11h1.67
				l0.02,0.02v0.43l-0.02,0.02h-2.12l-0.02-0.02v-3.25l0.02-0.02H227.66z"/>
			<path class="st3" d="M231.03,95.85v3.28l-0.02,0.02h-0.42l-0.02-0.02v-2.9l0.02-0.05l0.42-0.35L231.03,95.85z"/>
			<path class="st3" d="M233.06,95.78c0.54,0,1.08,0.39,1.08,1.34c0,0.82-0.61,1.72-1.08,2.03h-0.54l-0.02-0.02
				c0.38-0.33,0.85-0.85,1.03-1.39c-0.11,0.07-0.28,0.12-0.47,0.12c-0.61,0-1.04-0.47-1.04-1.04S232.44,95.78,233.06,95.78z
				 M233.64,97.15v-0.03c0-0.64-0.28-0.87-0.59-0.87c-0.35,0-0.54,0.26-0.54,0.57c0,0.33,0.21,0.57,0.54,0.57
				C233.32,97.38,233.46,97.33,233.64,97.15z"/>
			<path class="st3" d="M237.18,95.85l0.02,0.02l-1.6,3.25l-0.05,0.02h-0.49l-0.02-0.02l1.39-2.81h-1.37l-0.02-0.02v-0.43l0.02-0.02
				H237.18z"/>
			<path class="st3" d="M239.82,95.85l0.02,0.02l-0.68,1.27c0.45,0.12,0.73,0.49,0.73,0.97c0,0.61-0.49,1.11-1.11,1.11
				c-0.35,0-0.71-0.17-0.97-0.52l0.28-0.33h0.05c0.19,0.21,0.35,0.38,0.64,0.38c0.35,0,0.61-0.28,0.61-0.64
				c0-0.33-0.31-0.59-0.71-0.59c-0.12,0-0.21,0.02-0.33,0.07l-0.02-0.02l0.71-1.25h-1.2l-0.02-0.02v-0.43l0.02-0.02H239.82z"/>
		</g>
	</g>
</g>
</svg>
