<svg xmlns="http://www.w3.org/2000/svg" xmlns:xlink="http://www.w3.org/1999/xlink" width="23.799" height="23.8" viewBox="0 0 23.799 23.8">
  <defs>
    <clipPath id="clip-path">
      <path id="Path_15" data-name="Path 15" d="M24.233-15.276a1.314,1.314,0,0,1-1.313,1.314H16.855v-9.217h3.094l.464-3.592H16.855v-2.294c0-1.04.289-1.748,1.78-1.748h1.9v-3.213a25.548,25.548,0,0,0-2.771-.141c-2.742,0-4.62,1.674-4.62,4.748v2.649h-3.1v3.592h3.1v9.217H1.747A1.314,1.314,0,0,1,.434-15.276V-36.448a1.314,1.314,0,0,1,1.313-1.314H22.92a1.314,1.314,0,0,1,1.313,1.314v21.172" transform="translate(-0.434 37.762)" fill="#fff" clip-rule="evenodd"/>
    </clipPath>
    <clipPath id="clip-path-2">
      <path id="Path_14" data-name="Path 14" d="M-289,435.439H527.845V-137H-289Z" transform="translate(289 137)" fill="#fff"/>
    </clipPath>
  </defs>
  <g id="Facebook_Icon" data-name="Facebook Icon" clip-path="url(#clip-path)">
    <g id="Group_33" data-name="Group 33" transform="translate(-187.637 -64.335)" clip-path="url(#clip-path-2)">
      <path id="Path_13" data-name="Path 13" d="M-4.566-42.762H25.716v30.283H-4.566Z" transform="translate(188.962 103.855)" fill="#fff"/>
    </g>
  </g>
</svg>
