<svg xmlns="http://www.w3.org/2000/svg" xmlns:xlink="http://www.w3.org/1999/xlink" width="26.18" height="23.8" viewBox="0 0 26.18 23.8">
  <defs>
    <clipPath id="clip-path">
      <path id="Path_6" data-name="Path 6" d="M387.407-28h5.1v16.168h-5.1Zm19.044-.155c3.627,0,6.476,2.326,6.476,7.334v8.99h-5.786V-20.2c0-2.19-.9-3.685-2.9-3.685a2.919,2.919,0,0,0-2.763,1.981,3.686,3.686,0,0,0-.125,1.321v8.749h-5.732s.074-14.82,0-16.168h5.732v2.538C401.7-26.575,403.528-28.158,406.451-28.158Zm-16.587-7.477a2.834,2.834,0,0,1,3.077,2.8,2.844,2.844,0,0,1-3.113,2.808h-.037a2.821,2.821,0,0,1-3.045-2.8A2.849,2.849,0,0,1,389.864-35.635Z" transform="translate(-386.747 35.635)" fill="#fff" clip-rule="evenodd"/>
    </clipPath>
    <clipPath id="clip-path-2">
      <path id="Path_5" data-name="Path 5" d="M-289,489.652H605.2V-137H-289Z" transform="translate(289 137)" fill="#fff"/>
    </clipPath>
  </defs>
  <g id="linkedin_Icon" data-name="linkedin Icon" clip-path="url(#clip-path)">
    <g id="Group_27" data-name="Group 27" transform="translate(-479.568 -71.937)" clip-path="url(#clip-path-2)">
      <path id="Path_4" data-name="Path 4" d="M381.747-40.635h33.277v30.9H381.747Z" transform="translate(94.272 109.024)" fill="#fff"/>
    </g>
  </g>
</svg>
